<svg width="88" height="15" viewBox="0 0 88 15" fill="none" xmlns="http://www.w3.org/2000/svg">
<path d="M4.288 14.192C3.41333 14.192 2.72 14.0107 2.208 13.648C1.696 13.2747 1.328 12.752 1.104 12.08C0.890667 11.3973 0.784 10.608 0.784 9.712V5.376C0.784 4.448 0.896 3.648 1.12 2.976C1.344 2.304 1.73333 1.78667 2.288 1.424C2.85333 1.06133 3.616 0.879999 4.576 0.879999C5.504 0.879999 6.23467 1.03467 6.768 1.344C7.312 1.65333 7.70133 2.09067 7.936 2.656C8.17067 3.22133 8.288 3.89333 8.288 4.672V5.424H5.712V4.512C5.712 4.17067 5.69067 3.872 5.648 3.616C5.60533 3.34933 5.504 3.14133 5.344 2.992C5.19467 2.84267 4.94933 2.768 4.608 2.768C4.256 2.768 4 2.85867 3.84 3.04C3.68 3.22133 3.57867 3.456 3.536 3.744C3.49333 4.02133 3.472 4.32 3.472 4.64V10.384C3.472 10.7467 3.504 11.072 3.568 11.36C3.632 11.648 3.74933 11.872 3.92 12.032C4.10133 12.192 4.35733 12.272 4.688 12.272C5.01867 12.272 5.27467 12.1867 5.456 12.016C5.63733 11.8453 5.76 11.616 5.824 11.328C5.89867 11.0293 5.936 10.6933 5.936 10.32V8.944H4.672V7.344H8.32V14H6.592L6.432 12.832C6.26133 13.2267 6.00533 13.552 5.664 13.808C5.32267 14.064 4.864 14.192 4.288 14.192ZM10.1323 14V1.04H15.7803V2.864H12.7723V6.304H15.0923V8.144H12.7723V12.208H15.8123V14H10.1323ZM17.1479 14V1.04H18.9879L21.8679 7.792V1.04H24.0439V14H22.2839L19.4039 6.832V14H17.1479ZM26.0073 14V1.04H29.3673C30.2419 1.04 30.9886 1.14133 31.6073 1.344C32.2366 1.536 32.7166 1.88267 33.0473 2.384C33.3886 2.88533 33.5593 3.57867 33.5593 4.464C33.5593 4.99733 33.5113 5.472 33.4153 5.888C33.3299 6.29333 33.1699 6.65067 32.9353 6.96C32.7113 7.25867 32.3913 7.49867 31.9753 7.68L33.7673 14H31.0633L29.5753 8.128H28.6473V14H26.0073ZM28.6473 6.56H29.4153C29.8419 6.56 30.1779 6.49067 30.4233 6.352C30.6686 6.21333 30.8393 6.00533 30.9353 5.728C31.0419 5.44 31.0953 5.088 31.0953 4.672C31.0953 4.07467 30.9833 3.62133 30.7593 3.312C30.5459 2.992 30.1406 2.832 29.5433 2.832H28.6473V6.56ZM35.3354 14V1.04H40.9834V2.864H37.9754V6.304H40.2954V8.144H37.9754V12.208H41.0154V14H35.3354ZM45.711 14.176C44.911 14.176 44.2443 14.032 43.711 13.744C43.1777 13.4453 42.7723 13.0027 42.495 12.416C42.2283 11.8187 42.0737 11.0613 42.031 10.144L44.303 9.76C44.3243 10.2933 44.3777 10.7413 44.463 11.104C44.559 11.456 44.6977 11.7227 44.879 11.904C45.071 12.0747 45.3057 12.16 45.583 12.16C45.9243 12.16 46.1537 12.0533 46.271 11.84C46.399 11.6267 46.463 11.3813 46.463 11.104C46.463 10.56 46.3297 10.1067 46.063 9.744C45.807 9.37067 45.4657 8.99733 45.039 8.624L43.695 7.456C43.215 7.05067 42.8203 6.592 42.511 6.08C42.2123 5.568 42.063 4.93867 42.063 4.192C42.063 3.12533 42.3723 2.30933 42.991 1.744C43.6203 1.168 44.479 0.879999 45.567 0.879999C46.2177 0.879999 46.751 0.986666 47.167 1.2C47.583 1.41333 47.903 1.70133 48.127 2.064C48.3617 2.416 48.5217 2.80533 48.607 3.232C48.703 3.648 48.7617 4.064 48.783 4.48L46.527 4.816C46.5057 4.42133 46.4683 4.07467 46.415 3.776C46.3723 3.47733 46.2763 3.24267 46.127 3.072C45.9883 2.90133 45.775 2.816 45.487 2.816C45.1777 2.816 44.9483 2.93333 44.799 3.168C44.6497 3.392 44.575 3.64267 44.575 3.92C44.575 4.37867 44.6763 4.75733 44.879 5.056C45.0923 5.344 45.3803 5.648 45.743 5.968L47.055 7.12C47.599 7.58933 48.063 8.128 48.447 8.736C48.8417 9.33333 49.039 10.0747 49.039 10.96C49.039 11.568 48.9003 12.1173 48.623 12.608C48.3457 13.0987 47.9563 13.4827 47.455 13.76C46.9643 14.0373 46.383 14.176 45.711 14.176ZM50.4611 14V1.04H53.0851V14H50.4611ZM58.3818 14.192C57.5071 14.192 56.8138 14.0107 56.3018 13.648C55.7898 13.2747 55.4218 12.752 55.1978 12.08C54.9844 11.3973 54.8778 10.608 54.8778 9.712V5.376C54.8778 4.448 54.9898 3.648 55.2138 2.976C55.4378 2.304 55.8271 1.78667 56.3818 1.424C56.9471 1.06133 57.7098 0.879999 58.6698 0.879999C59.5978 0.879999 60.3284 1.03467 60.8618 1.344C61.4058 1.65333 61.7951 2.09067 62.0298 2.656C62.2644 3.22133 62.3818 3.89333 62.3818 4.672V5.424H59.8058V4.512C59.8058 4.17067 59.7844 3.872 59.7418 3.616C59.6991 3.34933 59.5978 3.14133 59.4378 2.992C59.2884 2.84267 59.0431 2.768 58.7018 2.768C58.3498 2.768 58.0938 2.85867 57.9338 3.04C57.7738 3.22133 57.6724 3.456 57.6298 3.744C57.5871 4.02133 57.5658 4.32 57.5658 4.64V10.384C57.5658 10.7467 57.5978 11.072 57.6618 11.36C57.7258 11.648 57.8431 11.872 58.0138 12.032C58.1951 12.192 58.4511 12.272 58.7818 12.272C59.1124 12.272 59.3684 12.1867 59.5498 12.016C59.7311 11.8453 59.8538 11.616 59.9178 11.328C59.9924 11.0293 60.0298 10.6933 60.0298 10.32V8.944H58.7658V7.344H62.4138V14H60.6858L60.5258 12.832C60.3551 13.2267 60.0991 13.552 59.7578 13.808C59.4164 14.064 58.9578 14.192 58.3818 14.192ZM64.258 14V1.04H66.898V6.368H69.186V1.04H71.826V14H69.186V8.256H66.898V14H64.258ZM75.0358 14V3.008H73.0358V1.04H79.6598V3.008H77.6918V14H75.0358ZM84.1954 14.176C83.3954 14.176 82.7287 14.032 82.1954 13.744C81.662 13.4453 81.2567 13.0027 80.9794 12.416C80.7127 11.8187 80.558 11.0613 80.5154 10.144L82.7874 9.76C82.8087 10.2933 82.862 10.7413 82.9474 11.104C83.0434 11.456 83.182 11.7227 83.3634 11.904C83.5554 12.0747 83.79 12.16 84.0674 12.16C84.4087 12.16 84.638 12.0533 84.7554 11.84C84.8834 11.6267 84.9474 11.3813 84.9474 11.104C84.9474 10.56 84.814 10.1067 84.5474 9.744C84.2914 9.37067 83.95 8.99733 83.5234 8.624L82.1794 7.456C81.6994 7.05067 81.3047 6.592 80.9954 6.08C80.6967 5.568 80.5474 4.93867 80.5474 4.192C80.5474 3.12533 80.8567 2.30933 81.4754 1.744C82.1047 1.168 82.9634 0.879999 84.0514 0.879999C84.702 0.879999 85.2354 0.986666 85.6514 1.2C86.0674 1.41333 86.3874 1.70133 86.6114 2.064C86.846 2.416 87.006 2.80533 87.0914 3.232C87.1874 3.648 87.246 4.064 87.2674 4.48L85.0114 4.816C84.99 4.42133 84.9527 4.07467 84.8994 3.776C84.8567 3.47733 84.7607 3.24267 84.6114 3.072C84.4727 2.90133 84.2594 2.816 83.9714 2.816C83.662 2.816 83.4327 2.93333 83.2834 3.168C83.134 3.392 83.0594 3.64267 83.0594 3.92C83.0594 4.37867 83.1607 4.75733 83.3634 5.056C83.5767 5.344 83.8647 5.648 84.2274 5.968L85.5394 7.12C86.0834 7.58933 86.5474 8.128 86.9314 8.736C87.326 9.33333 87.5234 10.0747 87.5234 10.96C87.5234 11.568 87.3847 12.1173 87.1074 12.608C86.83 13.0987 86.4407 13.4827 85.9394 13.76C85.4487 14.0373 84.8674 14.176 84.1954 14.176Z" fill="url(#paint0_linear_6_2)"/>
<defs>
<linearGradient id="paint0_linear_6_2" x1="-16.5" y1="8" x2="103.5" y2="6.99999" gradientUnits="userSpaceOnUse">
<stop stop-color="#FF00B8"/>
<stop offset="1" stop-color="#FF0000"/>
</linearGradient>
</defs>
</svg>
